<?xml version="1.0" standalone="no"?>
<!DOCTYPE svg PUBLIC "-//W3C//DTD SVG 20010904//EN"
 "http://www.w3.org/TR/2001/REC-SVG-20010904/DTD/svg10.dtd">
<svg version="1.0" xmlns="http://www.w3.org/2000/svg"
 width="779.000000pt" height="557.000000pt" viewBox="0 0 779.000000 557.000000"
 preserveAspectRatio="xMidYMid meet">

<g transform="translate(0.000000,557.000000) scale(0.100000,-0.100000)"
fill="#000000" stroke="none">
<path d="M1943 4713 c15 -2 37 -2 50 0 12 2 0 4 -28 4 -27 0 -38 -2 -22 -4z"/>
<path d="M2101 4716 c2 -2 47 -6 99 -9 65 -3 81 -2 50 3 -45 9 -157 13 -149 6z"/>
<path d="M2348 4683 c7 -3 16 -2 19 1 4 3 -2 6 -13 5 -11 0 -14 -3 -6 -6z"/>
<path d="M2416 4671 c9 -9 83 -27 74 -18 -3 3 -23 10 -44 16 -22 5 -35 6 -30
2z"/>
<path d="M2525 4635 c17 -8 37 -14 45 -14 8 0 -1 7 -20 14 -46 18 -64 17 -25
0z"/>
<path d="M1900 4575 c1 -26 2 -28 11 -12 8 14 8 22 0 30 -8 8 -11 3 -11 -18z"/>
<path d="M2680 4575 c14 -8 30 -14 35 -14 6 0 -1 6 -15 14 -14 8 -29 14 -35
14 -5 0 1 -6 15 -14z"/>
<path d="M2750 4546 c0 -2 7 -7 16 -10 8 -3 12 -2 9 4 -6 10 -25 14 -25 6z"/>
<path d="M2810 4516 c0 -2 7 -7 16 -10 8 -3 12 -2 9 4 -6 10 -25 14 -25 6z"/>
<path d="M2895 4470 c7 -11 65 -43 65 -36 0 2 -16 13 -36 25 -19 12 -32 16
-29 11z"/>
<path d="M2980 4416 c0 -2 8 -10 18 -17 15 -13 16 -12 3 4 -13 16 -21 21 -21
13z"/>
<path d="M3050 4366 c0 -2 8 -10 18 -17 15 -13 16 -12 3 4 -13 16 -21 21 -21
13z"/>
<path d="M1921 4310 c0 -33 1 -34 10 -11 6 16 6 28 -1 35 -7 7 -10 -1 -9 -24z"/>
<path d="M3120 4305 c19 -19 36 -35 39 -35 3 0 -10 16 -29 35 -19 19 -36 35
-39 35 -3 0 10 -16 29 -35z"/>
<path d="M3180 4251 c0 -6 4 -13 10 -16 6 -3 7 1 4 9 -7 18 -14 21 -14 7z"/>
<path d="M1930 4192 c0 -23 4 -42 9 -42 6 0 7 17 4 38 -8 51 -13 53 -13 4z"/>
<path d="M3210 4217 c0 -2 15 -16 33 -33 l32 -29 -29 33 c-28 30 -36 37 -36
29z"/>
<path d="M1944 4040 c4 -58 16 -202 27 -320 11 -118 22 -231 23 -250 2 -19 6
-76 11 -127 l7 -92 -31 -39 c-17 -22 -31 -42 -31 -45 0 -13 -134 -132 -148
-132 -21 0 -79 117 -92 186 -6 30 -15 56 -20 57 -18 6 -10 31 14 47 28 19 39
72 23 114 -9 25 -8 33 6 49 22 24 22 35 -2 27 -14 -4 -28 4 -50 27 l-31 33
-34 -19 c-65 -35 -76 -51 -63 -91 9 -31 8 -38 -11 -58 -27 -29 -28 -37 -2 -37
30 0 25 -30 -15 -97 l-35 -59 -5 -214 c-3 -118 -8 -225 -11 -238 -2 -12 2 -35
10 -50 7 -15 16 -67 18 -117 4 -71 12 -107 37 -167 36 -88 39 -133 11 -168
-11 -14 -20 -31 -20 -38 0 -7 -11 -17 -25 -22 -16 -6 -33 -26 -45 -55 -19 -44
-20 -45 -67 -46 -26 -1 -38 -4 -25 -6 26 -5 28 -20 6 -51 -8 -12 -13 -26 -10
-31 3 -5 41 -11 83 -15 208 -17 229 -24 137 -47 -82 -21 -57 -29 90 -29 140 0
173 -7 149 -31 -5 -5 -61 -10 -124 -11 -63 -1 -123 -5 -134 -9 -18 -6 -17 -8
8 -14 16 -4 63 -10 105 -14 59 -5 77 -10 77 -21 0 -10 -13 -17 -40 -20 -30 -4
-40 -10 -40 -23 0 -9 -13 -26 -30 -37 -46 -30 -17 -33 177 -20 364 24 367 25
130 34 -117 5 -214 12 -217 16 -3 4 17 13 43 20 104 27 102 25 59 40 -20 8
-36 19 -34 25 2 5 35 18 73 28 108 28 107 35 -11 57 -80 15 -95 20 -95 30 0 4
17 11 37 15 56 10 23 21 -87 29 -111 9 -140 14 -140 28 0 10 47 9 228 -8 71
-7 85 -1 60 24 -20 20 -3 24 109 32 115 7 99 13 -29 10 -85 -2 -90 2 -88 72 1
18 -13 74 -31 123 -17 50 -33 104 -36 120 -2 17 -18 80 -35 142 -29 108 -29
114 -14 155 8 24 17 53 18 66 3 22 7 23 89 25 68 2 91 6 107 20 15 14 29 17
55 12 39 -8 40 -9 52 -145 8 -90 15 -120 26 -120 6 0 8 26 4 68 -4 37 -10 119
-15 182 -4 63 -13 133 -19 155 -6 22 -10 86 -9 142 1 65 -3 107 -10 116 -12
14 -35 201 -30 246 1 14 0 31 -4 36 -9 15 -31 275 -24 282 3 3 2 11 -3 17 -8
10 -17 96 -26 249 -2 38 -7 72 -11 75 -4 4 -4 -40 0 -98z m80 -985 l7 -60 -20
25 c-31 38 -55 18 -59 -49 -3 -51 -3 -51 -38 -51 -18 0 -34 2 -34 4 0 2 20 37
45 77 25 40 45 77 45 83 0 16 33 47 41 39 4 -5 10 -35 13 -68z m-344 -905 c0
-29 -4 -40 -15 -40 -18 0 -18 7 -4 49 15 41 19 39 19 -9z"/>
<path d="M3295 4120 c10 -11 20 -20 23 -20 3 0 -3 9 -13 20 -10 11 -20 20 -23
20 -3 0 3 -9 13 -20z"/>
<path d="M3330 4071 c5 -11 15 -23 21 -27 6 -3 3 5 -6 20 -20 30 -30 35 -15 7z"/>
<path d="M3508 3498 c-8 -13 -19 -34 -23 -48 -4 -14 -20 -54 -37 -89 -31 -69
-31 -96 2 -86 15 5 20 2 20 -12 0 -47 -47 -75 -95 -57 -26 10 -45 59 -45 116
-1 50 -1 52 -16 33 -9 -11 -25 -40 -36 -64 -11 -24 -38 -71 -59 -104 -22 -33
-37 -62 -35 -65 3 -2 22 8 43 22 20 14 45 26 53 26 9 0 34 -18 55 -40 43 -44
95 -64 144 -54 30 6 51 23 112 90 15 16 34 35 43 42 22 18 20 44 -13 145 -27
84 -72 167 -90 167 -5 0 -15 -10 -23 -22z"/>
<path d="M6270 3291 c-92 -28 -155 -87 -193 -181 -22 -55 -22 -60 -22 -595 l0
-540 24 -59 c48 -120 148 -186 281 -186 133 0 233 66 281 186 l24 59 0 540 0
540 -24 59 c-33 81 -101 149 -172 170 -55 17 -156 20 -199 7z m148 -217 c52
-36 52 -36 52 -559 0 -523 0 -523 -52 -559 -29 -21 -87 -20 -117 0 -50 35 -51
48 -51 559 0 511 1 524 51 559 30 20 88 21 117 0z"/>
<path d="M2180 3253 c0 -25 12 -173 25 -293 6 -64 62 -701 80 -920 8 -102 18
-209 21 -237 l6 -53 133 0 133 0 6 48 c3 26 20 200 36 387 17 187 32 354 35
370 2 17 7 74 11 128 4 53 11 97 15 97 5 0 9 -7 9 -15 0 -19 58 -673 64 -730
3 -22 10 -95 17 -162 l12 -123 123 0 c120 0 124 1 128 23 3 12 15 135 26 273
12 138 23 266 25 285 5 48 10 108 44 514 17 198 33 377 36 398 l5 37 -85 0
c-97 0 -90 8 -99 -115 -12 -155 -18 -231 -21 -260 -1 -16 -15 -201 -31 -410
-15 -209 -31 -384 -36 -390 -4 -5 -9 4 -9 20 -1 17 -3 39 -4 50 -1 11 -5 65
-9 120 -4 55 -9 114 -11 130 -2 17 -18 206 -35 420 -17 215 -33 400 -36 413
-4 21 -8 22 -113 22 l-108 0 -12 -145 c-13 -157 -20 -240 -26 -295 -2 -19 -16
-191 -31 -382 -15 -192 -31 -348 -35 -348 -3 0 -9 42 -13 93 -4 50 -9 110 -11
132 -2 22 -7 78 -10 125 -4 47 -8 105 -11 130 -4 42 -54 678 -54 686 0 2 -43
4 -95 4 l-95 0 0 -27z"/>
<path d="M3730 2691 c0 -365 4 -619 11 -668 27 -196 126 -293 299 -293 168 0
269 95 299 280 7 40 11 294 11 668 l0 602 -100 0 -100 0 -2 -641 -3 -641 -33
-29 c-36 -32 -77 -37 -121 -15 -57 30 -56 16 -59 699 l-3 627 -99 0 -100 0 0
-589z"/>
<path d="M4960 2515 l0 -765 100 0 100 0 0 335 0 335 135 0 135 0 0 105 0 105
-135 0 -135 0 0 220 0 220 170 0 170 0 0 105 0 105 -270 0 -270 0 0 -765z"/>
</g>
</svg>
