<?xml version="1.0" standalone="no"?>
<!DOCTYPE svg PUBLIC "-//W3C//DTD SVG 20010904//EN"
 "http://www.w3.org/TR/2001/REC-SVG-20010904/DTD/svg10.dtd">
<svg version="1.0" xmlns="http://www.w3.org/2000/svg"
 width="2100.000000pt" height="1500.000000pt" viewBox="0 0 2100.000000 1500.000000"
 preserveAspectRatio="xMidYMid meet">

<g transform="translate(0.000000,1500.000000) scale(0.100000,-0.100000)"
fill="#000000" stroke="none">
<path d="M5730 11572 c0 -4 89 -8 198 -8 234 1 389 -5 457 -17 279 -48 503
-103 674 -164 25 -9 69 -24 96 -33 28 -10 79 -30 115 -45 81 -34 122 -47 115
-34 -4 5 -10 9 -16 9 -5 0 -28 9 -52 20 -119 54 -447 164 -523 174 -11 2 -26
6 -31 9 -19 12 -291 66 -408 82 -124 16 -625 22 -625 7z"/>
<path d="M5686 11343 c3 -26 7 -49 8 -50 1 -1 6 13 11 30 9 26 7 35 -8 50 -18
18 -18 17 -11 -30z"/>
<path d="M5698 11240 c-3 -16 -1 -35 4 -42 4 -8 8 4 8 30 0 49 -6 55 -12 12z"/>
<path d="M7445 11233 c60 -31 115 -55 115 -49 0 5 -150 76 -159 76 -3 -1 17
-13 44 -27z"/>
<path d="M5706 11130 c8 -101 13 -155 18 -190 3 -19 10 -89 16 -155 5 -66 19
-221 31 -345 11 -124 22 -252 24 -285 2 -33 8 -87 14 -120 12 -67 46 -395 52
-505 1 -14 5 -52 10 -85 10 -76 16 -131 24 -222 5 -59 3 -74 -10 -85 -36 -29
-77 -75 -103 -116 -15 -23 -35 -45 -45 -48 -10 -3 -31 -18 -47 -32 -47 -44
-124 -111 -145 -127 -29 -21 -61 -18 -85 8 -35 37 -143 263 -136 284 8 26 -17
85 -43 101 -31 18 -26 38 17 63 57 36 61 42 68 116 5 56 4 71 -10 82 -28 23
-19 61 22 99 l37 34 -36 -6 c-48 -8 -76 3 -124 53 -39 40 -68 51 -80 31 -3 -5
-13 -10 -21 -10 -9 0 -31 -12 -50 -26 -19 -15 -34 -23 -34 -19 0 3 -7 0 -15
-7 -8 -7 -22 -19 -31 -27 -16 -13 -16 -19 3 -111 4 -20 -5 -36 -37 -70 l-43
-45 39 -5 c36 -5 39 -7 42 -41 2 -27 -4 -43 -27 -70 -17 -19 -47 -65 -67 -104
-35 -68 -36 -74 -39 -195 -7 -230 -15 -484 -20 -571 -5 -78 -3 -89 17 -115 20
-25 23 -40 24 -139 1 -117 23 -204 79 -315 14 -27 25 -56 25 -64 0 -8 4 -16
10 -18 5 -1 15 -29 21 -60 11 -52 10 -61 -11 -104 -13 -26 -31 -55 -39 -64 -9
-9 -24 -30 -33 -46 -9 -16 -25 -30 -35 -32 -50 -8 -63 -14 -63 -28 0 -9 -7
-28 -15 -42 -8 -15 -19 -39 -24 -53 -11 -30 -41 -38 -156 -40 -38 -1 -56 -4
-40 -6 58 -7 75 -14 75 -29 0 -18 -29 -66 -47 -77 -42 -26 15 -48 136 -54 229
-10 376 -27 376 -43 0 -10 -28 -22 -90 -38 -49 -13 -97 -26 -105 -29 -38 -14
51 -19 275 -16 132 2 250 1 263 -2 28 -7 29 -40 1 -55 -12 -7 -110 -12 -260
-14 -132 -2 -242 -6 -246 -10 -21 -21 94 -45 250 -53 130 -6 156 -15 143 -48
-4 -10 -19 -15 -49 -15 -25 0 -59 -3 -76 -6 -26 -5 -30 -10 -25 -29 6 -24 -20
-48 -78 -73 -19 -8 -26 -16 -22 -27 8 -20 62 -20 486 5 552 32 559 32 513 40
-22 4 -177 11 -345 15 -336 8 -436 15 -432 30 2 10 38 23 77 29 122 18 181 34
170 44 -4 4 -10 7 -13 7 -13 0 -107 38 -116 46 -11 10 24 40 36 33 10 -6 223
43 250 57 l22 12 -25 12 c-13 7 -69 20 -124 30 -188 34 -216 40 -216 50 0 5
26 15 58 22 72 17 87 30 42 37 -26 4 -316 31 -434 40 -11 0 -20 8 -20 16 0 24
117 24 301 1 245 -32 286 -28 245 25 -37 47 -47 45 299 63 118 7 224 13 235
15 11 2 -105 4 -257 5 -152 0 -279 5 -282 10 -3 5 -6 42 -7 82 -1 56 -6 81
-21 102 -19 26 -105 256 -114 307 -20 98 -35 163 -49 201 -9 24 -23 67 -32 94
-8 28 -18 55 -22 60 -17 23 -12 104 9 144 11 23 27 67 34 99 10 41 17 56 27
52 8 -3 64 -4 124 -4 119 1 219 23 229 51 5 12 16 14 54 10 90 -10 126 -22
118 -36 -6 -9 39 -369 49 -393 8 -20 14 -22 33 -10 10 7 10 37 -3 158 -9 82
-19 210 -22 284 -4 86 -11 142 -19 156 -33 50 -58 282 -40 375 13 69 7 99 -26
136 -15 17 -32 108 -43 233 -2 25 -6 72 -9 105 -4 33 -2 66 3 74 6 10 4 22 -5
36 -8 12 -19 58 -24 101 -5 44 -12 100 -15 125 -20 160 -22 224 -8 241 13 14
12 18 -5 27 -19 10 -20 13 -37 171 -2 19 -6 95 -9 167 -2 73 -8 138 -12 144
-11 18 -34 206 -34 282 0 47 4 67 13 67 6 0 2 8 -10 18 -18 14 -23 31 -29 112
-4 52 -10 104 -15 115 -4 12 -6 -3 -3 -35z m211 -2260 c7 -47 12 -96 10 -110
-2 -25 -2 -25 -19 6 -20 37 -58 50 -96 32 -26 -13 -27 -17 -30 -101 l-3 -87
-52 0 c-87 0 -88 5 -3 123 42 58 84 123 92 144 20 48 53 85 74 81 11 -2 18
-26 27 -88z m23 -200 c0 -5 -2 -10 -4 -10 -3 0 -8 5 -11 10 -3 6 -1 10 4 10 6
0 11 -4 11 -10z m-674 -1277 c-2 -16 -5 -47 -5 -70 -1 -39 -3 -43 -26 -43 -32
0 -32 14 -1 85 27 60 39 71 32 28z"/>
<path d="M7570 11175 c0 -3 27 -18 60 -35 34 -17 91 -49 128 -72 37 -22 71
-43 76 -46 5 -3 6 0 3 5 -10 16 -245 153 -262 153 -3 0 -5 -2 -5 -5z"/>
<path d="M7850 11017 c0 -2 34 -28 76 -57 308 -213 542 -471 696 -767 12 -24
23 -41 25 -39 7 7 -78 158 -140 249 -100 147 -258 317 -411 442 -97 79 -246
184 -246 172z"/>
<path d="M8655 10125 c4 -11 10 -28 12 -37 3 -10 9 -18 14 -18 5 0 2 15 -7 33
-19 38 -30 50 -19 22z"/>
<path d="M8686 10047 c3 -10 9 -15 12 -12 3 3 0 11 -7 18 -10 9 -11 8 -5 -6z"/>
<path d="M8705 10000 c12 -56 52 -200 58 -206 9 -9 -24 125 -44 180 -11 28
-17 40 -14 26z"/>
<path d="M8771 9724 c0 -11 3 -14 6 -6 3 7 2 16 -1 19 -3 4 -6 -2 -5 -13z"/>
<path d="M8781 9644 c-1 -42 -6 -55 -30 -78 -15 -15 -40 -57 -55 -94 -14 -37
-39 -92 -56 -122 -53 -98 -63 -123 -52 -140 9 -15 21 -16 72 -9 22 4 25 1 22
-21 -18 -130 -189 -144 -251 -21 -15 29 -19 56 -18 124 2 70 0 84 -10 71 -7
-9 -25 -31 -42 -49 -16 -18 -44 -62 -62 -97 -28 -57 -74 -122 -115 -163 -9 -8
-12 -15 -7 -15 4 0 3 -4 -4 -8 -12 -8 -47 -82 -39 -82 3 0 27 13 53 28 56 33
76 41 121 52 29 7 38 3 100 -49 38 -32 91 -68 117 -81 87 -42 231 -25 291 35
26 26 93 106 102 121 5 8 21 17 37 19 77 8 86 105 23 245 -11 24 -22 56 -25
70 -7 41 -72 149 -114 190 -28 27 -42 51 -48 82 l-9 43 -1 -51z"/>
<path d="M14032 9225 c-194 -42 -331 -166 -399 -360 l-28 -80 -3 -799 c-3
-890 -3 -896 62 -1033 62 -131 170 -223 314 -271 66 -22 95 -25 207 -26 143 0
213 13 313 61 80 39 181 141 220 224 70 146 67 106 67 1004 0 746 -1 815 -18
875 -60 220 -204 361 -412 405 -86 18 -239 18 -323 0z m274 -356 c35 -16 49
-32 71 -77 l28 -57 0 -785 c0 -727 -1 -788 -18 -831 -31 -81 -92 -119 -191
-119 -77 0 -120 16 -159 59 -25 27 -39 55 -46 93 -8 38 -11 284 -9 824 l3 770
26 49 c36 70 81 95 178 95 55 0 86 -5 117 -21z"/>
<path d="M6213 9168 c3 -24 61 -593 129 -1265 l123 -1223 260 0 261 0 87 838
c49 460 92 846 96 857 7 17 9 15 15 -15 6 -36 176 -1645 176 -1667 0 -10 55
-13 244 -13 l244 0 6 43 c3 23 60 578 126 1232 65 655 121 1205 124 1223 l5
32 -170 0 c-93 0 -169 -3 -169 -7 0 -26 -172 -1903 -176 -1922 -3 -13 -7 -21
-10 -18 -3 3 -45 423 -94 933 -49 511 -92 948 -95 972 l-6 42 -212 0 -213 0
-93 -967 c-51 -533 -95 -970 -97 -972 -2 -2 -6 -2 -9 1 -3 3 -45 439 -93 969
l-87 964 -189 3 -189 2 6 -42z"/>
<path d="M9183 8158 c3 -1174 -1 -1096 73 -1239 60 -114 153 -193 278 -237 95
-33 285 -41 396 -18 208 44 341 174 403 395 21 75 21 86 25 1114 l3 1037 -191
0 -190 0 0 -1013 c0 -1127 2 -1087 -65 -1146 -77 -67 -203 -67 -280 0 -67 59
-65 19 -65 1146 l0 1013 -195 0 -196 0 4 -1052z"/>
<path d="M11520 7950 l0 -1260 190 0 190 0 0 550 0 550 255 0 255 0 0 175 0
175 -255 0 -255 0 0 360 0 360 325 0 325 0 0 175 0 175 -515 0 -515 0 0 -1260z"/>
<path d="M4458 7253 c7 -3 16 -2 19 1 4 3 -2 6 -13 5 -11 0 -14 -3 -6 -6z"/>
<path d="M6213 6673 c9 -2 23 -2 30 0 6 3 -1 5 -18 5 -16 0 -22 -2 -12 -5z"/>
</g>
</svg>
