<?xml version="1.0" standalone="no"?>
<!DOCTYPE svg PUBLIC "-//W3C//DTD SVG 20010904//EN"
 "http://www.w3.org/TR/2001/REC-SVG-20010904/DTD/svg10.dtd">
<svg version="1.0" xmlns="http://www.w3.org/2000/svg"
 width="2100.000000pt" height="1500.000000pt" viewBox="0 0 2100.000000 1500.000000"
 preserveAspectRatio="xMidYMid meet">
<metadata>
Created by potrace 1.16, written by Peter Selinger 2001-2019
</metadata>
<g transform="translate(0.000000,1500.000000) scale(0.100000,-0.100000)"
fill="#000000" stroke="none">
<path d="M6080 11693 c-69 -7 -226 -33 -263 -43 l-38 -11 5 -52 c3 -29 15
-167 26 -307 33 -403 105 -1152 181 -1879 l40 -383 -41 -35 c-22 -19 -52 -58
-66 -85 -17 -34 -35 -54 -57 -63 -18 -7 -57 -41 -86 -75 -58 -67 -145 -140
-166 -140 -18 0 -86 108 -134 213 -32 69 -38 93 -31 111 6 17 5 29 -5 42 -8
11 -15 31 -15 46 0 21 -6 29 -25 34 -37 9 -31 19 27 51 l53 28 0 56 c0 31 6
63 12 71 10 12 8 24 -14 67 l-27 52 47 40 c46 40 60 68 35 70 -7 1 -37 0 -66
-1 -52 -2 -54 -1 -107 54 -35 37 -61 56 -77 56 -38 -1 -221 -103 -235 -131
-10 -20 -9 -37 3 -83 l15 -59 -39 -41 c-43 -45 -56 -73 -43 -95 8 -13 24 -13
70 0 9 2 17 -6 21 -21 5 -20 -1 -33 -35 -70 -57 -62 -91 -124 -111 -200 -15
-54 -18 -117 -19 -380 0 -173 -5 -349 -9 -391 -10 -91 -4 -123 30 -154 26 -24
26 -25 14 -95 -19 -114 -5 -176 88 -395 30 -71 57 -150 60 -175 4 -41 0 -51
-41 -106 -25 -33 -49 -72 -52 -87 -6 -24 -12 -27 -50 -27 l-42 0 -39 -84 -39
-84 -407 -4 c-305 -2 -410 -6 -420 -16 -6 -6 -10 -12 -7 -13 2 -1 159 -5 349
-9 190 -4 353 -11 363 -15 15 -6 12 -13 -23 -51 -55 -60 -53 -90 10 -109 14
-4 145 -10 292 -14 147 -4 270 -10 274 -14 17 -16 -20 -30 -132 -48 -175 -29
-216 -46 -161 -66 12 -4 163 -7 335 -5 315 3 370 -2 321 -29 -18 -10 -83 -12
-276 -11 -268 3 -337 -5 -331 -36 7 -36 182 -72 351 -72 89 0 130 -10 113 -27
-4 -4 -52 -10 -107 -11 -100 -4 -120 -13 -74 -34 14 -6 24 -16 22 -22 -2 -6
-32 -27 -67 -46 -115 -63 -91 -76 140 -73 91 1 302 11 470 22 168 11 384 23
481 27 97 3 182 10 190 15 9 6 -7 9 -46 10 -637 10 -976 19 -1000 26 l-30 10
24 12 c12 7 66 19 120 27 183 27 197 43 69 79 -121 34 -109 42 127 80 101 16
145 34 145 60 0 32 -88 57 -270 75 -133 13 -160 19 -140 30 8 4 38 11 65 15
28 3 61 12 75 20 l25 13 -28 11 c-16 6 -97 16 -180 21 -304 21 -404 38 -312
56 45 8 160 1 310 -20 141 -20 305 -21 305 -3 0 7 -18 24 -41 36 -76 43 -20
57 261 66 285 8 400 16 400 26 0 5 -147 10 -332 11 l-333 3 -3 97 c-2 88 -5
97 -26 112 -15 9 -26 29 -31 53 -4 21 -27 87 -52 148 -30 73 -50 139 -59 201
-8 56 -33 143 -64 227 -55 149 -60 190 -30 221 20 22 50 121 50 168 0 26 1 27
31 16 40 -14 256 -4 324 14 34 10 53 21 60 36 6 14 19 22 33 22 24 0 122 -28
134 -39 4 -3 14 -85 23 -181 24 -270 31 -292 79 -274 24 9 21 81 -11 282 -23
147 -25 178 -15 207 9 22 11 57 6 102 -5 61 -12 76 -36 85 -3 2 -16 82 -28
179 -19 159 -19 178 -5 205 27 52 16 156 -19 171 -19 9 -23 29 -48 224 -22
182 -24 215 -12 222 18 10 18 37 -1 37 -17 0 -18 4 -50 285 -22 193 -23 221
-10 231 20 15 19 31 -3 36 -16 5 -21 31 -40 214 -25 234 -26 264 -12 264 16 0
12 28 -6 38 -24 13 -60 373 -38 385 19 11 18 37 -1 37 -8 0 -15 1 -15 3 -1 1
-12 94 -25 207 -20 177 -22 207 -9 216 18 14 18 34 0 34 -14 0 -19 20 -32 132
l-6 56 38 11 c145 42 454 53 688 26 476 -56 1007 -239 1446 -498 666 -394
1091 -924 1210 -1508 27 -131 26 -145 -10 -176 -38 -32 -54 -62 -75 -143 -9
-35 -28 -77 -41 -93 -14 -17 -36 -51 -49 -76 -50 -101 -30 -150 49 -117 35 15
36 14 36 -8 0 -35 -41 -89 -83 -110 -110 -53 -211 57 -209 227 1 59 -2 77 -13
77 -22 0 -75 -75 -111 -157 -23 -54 -49 -92 -88 -132 -30 -31 -64 -76 -75
-101 -20 -44 -27 -80 -15 -80 3 0 37 19 76 42 52 31 83 42 122 45 50 4 51 3
83 -40 88 -122 264 -169 398 -106 62 29 137 98 166 154 22 44 26 46 57 41 41
-6 68 18 78 68 9 50 -2 98 -41 186 -18 41 -39 95 -45 120 -23 89 -90 190 -146
218 -16 9 -22 27 -32 100 -54 401 -263 778 -628 1132 -554 536 -1365 908
-2139 980 -103 9 -297 11 -375 3z m-17 -2950 c15 -96 20 -206 9 -199 -7 4 -12
12 -12 18 0 45 -88 65 -127 28 -32 -29 -35 -50 -19 -123 l14 -67 -80 0 -80 0
17 28 c10 15 56 78 103 140 47 62 82 115 79 118 -12 12 16 65 42 79 40 22 48
18 54 -22z"/>
<path d="M9879 8580 c-212 -34 -343 -172 -379 -400 -16 -104 -13 -1266 4
-1361 33 -185 131 -304 296 -360 54 -18 87 -22 190 -22 103 0 136 4 190 22
165 56 263 175 296 360 19 110 19 1272 0 1382 -33 184 -132 305 -292 358 -72
24 -223 34 -305 21z m201 -312 c18 -13 43 -36 54 -51 21 -28 21 -34 21 -707 0
-673 0 -679 -21 -707 -38 -51 -81 -73 -144 -73 -63 0 -106 22 -144 73 -21 28
-21 34 -21 707 0 673 0 679 21 707 38 51 81 73 144 73 43 0 65 -6 90 -22z"/>
<path d="M6530 7510 l0 -1050 450 0 450 0 0 150 0 150 -285 0 -285 0 2 323 3
322 223 3 222 2 0 145 0 145 -222 2 -223 3 -3 278 -2 277 285 0 285 0 0 150 0
150 -450 0 -450 0 0 -1050z"/>
<path d="M8468 7706 c-3 -845 -3 -855 -24 -882 -44 -60 -67 -69 -175 -69 l-99
0 0 -146 0 -146 38 -7 c64 -10 184 -6 257 9 137 29 231 99 282 211 51 111 52
144 53 1047 l0 837 -165 0 -165 0 -2 -854z"/>
<path d="M11190 7510 l0 -1050 165 0 165 0 0 451 0 451 103 -4 c84 -3 108 -7
138 -26 76 -47 88 -114 89 -510 0 -167 4 -290 11 -318 l11 -44 169 0 168 0
-16 43 c-13 34 -17 109 -23 402 -6 329 -9 366 -28 425 -12 36 -33 81 -47 100
-27 37 -99 90 -122 90 -23 0 -14 15 23 35 83 45 145 148 165 275 15 101 6 378
-15 445 -38 120 -113 204 -220 244 -91 34 -168 41 -458 41 l-278 0 0 -1050z
m570 732 c65 -35 75 -73 75 -277 0 -205 -9 -237 -74 -277 -30 -19 -54 -23
-138 -26 l-103 -4 0 301 0 301 103 0 c80 0 110 -4 137 -18z"/>
<path d="M13136 8533 c-8 -38 -336 -2052 -336 -2064 0 -5 63 -9 150 -9 l149 0
6 33 c7 44 55 364 55 371 0 3 86 6 190 6 105 0 190 -2 190 -4 0 -10 51 -364
55 -383 5 -23 7 -23 168 -23 l163 0 -171 1048 -170 1047 -222 3 -221 2 -6 -27z
m290 -860 c40 -279 70 -511 68 -515 -7 -11 -281 -10 -288 0 -3 5 26 233 65
508 38 274 69 505 69 513 0 8 3 11 7 8 4 -4 39 -235 79 -514z"/>
<path d="M14570 7510 l0 -1050 150 0 150 0 2 765 3 764 189 -732 c104 -403
193 -747 198 -764 l9 -33 169 0 170 0 0 1050 0 1050 -145 0 -145 0 0 -625 c0
-344 -3 -625 -8 -625 -4 0 -79 281 -166 625 l-160 625 -208 0 -208 0 0 -1050z"/>
<path d="M7580 7510 l0 -150 325 0 325 0 0 150 0 150 -325 0 -325 0 0 -150z"/>
</g>
</svg>
